<?xml version="1.0" standalone="no"?>
<!DOCTYPE svg PUBLIC "-//W3C//DTD SVG 20010904//EN"
 "http://www.w3.org/TR/2001/REC-SVG-20010904/DTD/svg10.dtd">
<svg version="1.0" xmlns="http://www.w3.org/2000/svg"
 width="400.000000pt" height="400.000000pt" viewBox="0 0 400.000000 400.000000"
 preserveAspectRatio="xMidYMid meet">
<metadata>
Created by potrace 1.11, written by Peter Selinger 2001-2013
</metadata>
<g transform="translate(0.000000,400.000000) scale(0.100000,-0.100000)"
fill="#000000" stroke="none">
<path d="M0 2000 l0 -2000 2000 0 2000 0 0 2000 0 2000 -2000 0 -2000 0 0
-2000z m2215 1129 c154 -18 378 -57 425 -74 25 -9 90 -43 146 -75 55 -33 107
-60 115 -60 8 0 44 -17 80 -38 219 -128 532 -413 678 -618 130 -181 211 -406
197 -544 -13 -136 -75 -259 -182 -364 -68 -67 -290 -218 -448 -305 -347 -191
-726 -302 -1041 -304 -330 -1 -910 98 -1141 196 -44 18 -151 81 -238 141 -87
58 -176 116 -197 127 -42 21 -171 53 -259 64 -105 13 -158 48 -186 121 -24 63
-15 213 20 319 33 101 42 117 57 93 17 -30 58 -22 95 17 45 48 93 137 164 301
136 316 304 537 560 737 131 102 203 141 351 190 265 89 501 111 804 76z"/>
<path d="M1715 2879 c-216 -33 -450 -125 -674 -264 -212 -132 -349 -292 -492
-577 -126 -251 -195 -354 -279 -414 -74 -53 -86 -124 -31 -183 26 -27 29 -28
169 -35 l144 -7 86 -58 c254 -168 494 -275 782 -346 512 -127 749 -123 1231
24 440 133 622 220 982 466 61 41 71 78 52 185 -35 208 -125 359 -364 617 -90
97 -144 146 -204 184 -209 134 -715 346 -932 390 -114 24 -373 34 -470 18z
m523 -110 c317 -73 572 -327 659 -656 35 -134 37 -316 4 -448 -99 -404 -456
-685 -871 -685 -412 0 -764 273 -871 675 -27 103 -30 314 -6 421 65 283 240
508 490 629 193 93 383 113 595 64z"/>
<path d="M1870 2665 c-480 -102 -764 -597 -600 -1046 90 -247 302 -436 565
-505 95 -25 295 -25 384 -1 248 67 429 212 540 434 77 154 97 359 52 528 -74
277 -288 497 -561 575 -96 28 -286 36 -380 15z m306 -16 c142 -26 278 -100
389 -213 166 -170 231 -340 223 -591 -4 -108 -9 -143 -32 -210 -82 -240 -267
-418 -516 -496 -63 -20 -96 -24 -210 -24 -156 0 -228 18 -365 88 -100 52 -233
180 -293 282 -183 313 -124 722 140 972 98 92 227 161 353 188 75 17 232 19
311 4z"/>
<path d="M1918 2540 c-144 -26 -255 -85 -364 -194 -131 -131 -194 -282 -194
-466 0 -188 55 -318 194 -455 143 -141 279 -198 476 -198 195 0 339 60 481
203 134 134 189 265 189 450 0 184 -62 333 -194 465 -90 91 -154 131 -269 170
-87 29 -236 41 -319 25z m312 -49 c360 -126 531 -554 359 -901 -32 -64 -60
-102 -118 -160 -200 -199 -491 -240 -746 -107 -129 68 -255 227 -301 382 -24
81 -24 255 0 344 61 223 230 395 448 456 82 23 275 15 358 -14z"/>
<path d="M1940 2404 c-244 -48 -424 -245 -446 -490 -13 -141 41 -279 151 -389
109 -110 236 -165 382 -165 322 -1 579 283 534 588 -38 257 -249 447 -506 457
-49 2 -101 1 -115 -1z"/>
</g>
</svg>
